<?xml version="1.0" standalone="no"?>
<!DOCTYPE svg PUBLIC "-//W3C//DTD SVG 20010904//EN"
 "http://www.w3.org/TR/2001/REC-SVG-20010904/DTD/svg10.dtd">
<svg version="1.0" xmlns="http://www.w3.org/2000/svg"
 width="400.000000pt" height="400.000000pt" viewBox="0 0 400.000000 400.000000"
 preserveAspectRatio="xMidYMid meet">
<metadata>
Created by potrace 1.14, written by Peter Selinger 2001-2017
</metadata>
<g transform="translate(0.000000,400.000000) scale(0.100000,-0.100000)"
fill="#000000" stroke="none">
<path d="M1818 3949 c-369 -32 -754 -186 -1043 -417 -231 -184 -409 -407 -541
-677 -138 -280 -194 -527 -194 -855 0 -328 56 -575 194 -855 200 -409 508
-713 919 -910 809 -387 1780 -176 2355 510 192 229 342 528 408 811 59 257 59
631 0 888 -47 201 -157 456 -273 631 -400 604 -1098 939 -1825 874z m-295
-1479 l637 -395 0 -70 0 -70 -637 -375 c-350 -206 -642 -376 -648 -378 -9 -2
-165 227 -165 242 0 2 223 135 495 296 272 161 495 295 495 299 0 3 -223 141
-495 305 -272 165 -495 301 -495 303 0 16 155 243 164 241 7 -2 299 -181 649
-398z m1767 -1200 l0 -150 -612 2 -613 3 -3 148 -3 147 616 0 615 0 0 -150z"/>
</g>
</svg>
