<?xml version="1.0" encoding="UTF-8"?>
<svg width="907px" height="341px" viewBox="0 0 907 341" version="1.1" xmlns="http://www.w3.org/2000/svg" xmlns:xlink="http://www.w3.org/1999/xlink">
    <!-- Generator: Sketch 64 (93537) - https://sketch.com -->
    <title>Network - Latency</title>
    <desc>Created with Sketch.</desc>
    <g id="Page-1" stroke="none" stroke-width="1" fill="none" fill-rule="evenodd">
        <g id="Network---Latency" transform="translate(-32.000000, -41.000000)">
            <g id="Right-Side" transform="translate(443.000000, 100.000000)">
                <g id="SDSC" transform="translate(391.000000, 38.000000)">
                    <text transform="translate(55.500000, 12.985491) rotate(-360.000000) translate(-55.500000, -12.985491) " font-family="Helvetica" font-size="18" font-weight="normal" line-spacing="24" fill="#171717">
                        <tspan x="30.4951172" y="18.9854911">SDSC</tspan>
                    </text>
                    <g id="building--insights-3" transform="translate(0.000000, 35.153925)">
                        <path d="M97.125,7.00055804 L55.5,7.00055804 C51.6701097,7.00441695 48.5663242,10.1364142 48.5625,14.0011161 L48.5625,49.0039062 L13.875,49.0039062 C10.0451097,49.0077652 6.94132416,52.1397624 6.9375,56.0044643 L6.9375,105.008371 L104.0625,105.008371 L104.0625,14.0011161 C104.058103,10.1366538 100.954653,7.00499452 97.125,7.00055804 Z M31.21875,98.0078125 L31.21875,73.5058594 L45.09375,73.5058594 L45.09375,98.0078125 L31.21875,98.0078125 Z M97.125,98.0078125 L52.03125,98.0078125 L52.03125,70.0055804 C52.03125,68.0724296 50.4782377,66.5053013 48.5625,66.5053013 L27.75,66.5053013 C25.8342623,66.5053013 24.28125,68.0724296 24.28125,70.0055804 L24.28125,98.0078125 L13.875,98.0078125 L13.875,56.0044643 L55.5,56.0044643 L55.5,14.0011161 L97.125,14.0011161 L97.125,98.0078125 Z" id="Shape" fill="#000000" fill-rule="nonzero"></path>
                        <rect id="Rectangle" fill="#000000" fill-rule="nonzero" x="62.4375" y="28.0022321" width="6.9375" height="7.00055804"></rect>
                        <rect id="Rectangle" fill="#000000" fill-rule="nonzero" x="83.25" y="28.0022321" width="6.9375" height="7.00055804"></rect>
                        <rect id="Rectangle" fill="#000000" fill-rule="nonzero" x="62.4375" y="49.0039062" width="6.9375" height="7.00055804"></rect>
                        <rect id="Rectangle" fill="#000000" fill-rule="nonzero" x="83.25" y="49.0039062" width="6.9375" height="7.00055804"></rect>
                        <rect id="Rectangle" fill="#000000" fill-rule="nonzero" x="62.4375" y="70.0041802" width="6.9375" height="7.00055804"></rect>
                        <rect id="Rectangle" fill="#000000" fill-rule="nonzero" x="83.25" y="70.0041802" width="6.9375" height="7.00055804"></rect>
                        <rect id="Rectangle" fill="#000000" fill-rule="nonzero" x="6.9375" y="35.0034902" width="17.34375" height="6.9988079"></rect>
                        <rect id="Rectangle" fill="#000000" fill-rule="nonzero" x="34.6875" y="7.00055804" width="6.9375" height="17.5013951"></rect>
                        <polygon id="Rectangle" fill="#000000" fill-rule="nonzero" transform="translate(22.546957, 22.751937) rotate(-45.000000) translate(-22.546957, -22.751937) " points="19.1027638 13.9321911 26.0710959 13.9006652 25.9911493 31.5716837 19.0228172 31.6032095"></polygon>
                        <rect id="_Transparent_Rectangle_" x="0" y="0" width="111" height="112.008929"></rect>
                    </g>
                    <g id="code-snippet-/-inline-/-02-hover" transform="translate(24.281250, 176.331845)">
                        <rect id="background" fill="#E5E5E5" fill-rule="evenodd" x="0" y="0" width="62.4375" height="16" rx="2"></rect>
                        <g id="utilities-/-spacer-/-component-/-horizontal-/-spacing-03-(8px)-/-off" transform="translate(54.437500, 0.000000)">
                            <rect id="spacer" x="0" y="0" width="8" height="18.6681548"></rect>
                        </g>
                        <text id="Inline-code" font-family="Helvetica" font-size="12" font-weight="normal" line-spacing="16" letter-spacing="0.319999993" fill="#161616">
                            <tspan x="8" y="11">-C ib</tspan>
                        </text>
                    </g>
                    <text id="Y-label-Copy-2" transform="translate(54.921875, 159.997210) rotate(-360.000000) translate(-54.921875, -159.997210) " font-family="Helvetica" font-size="12" font-weight="normal" line-spacing="16" fill="#171717">
                        <tspan x="12.71875" y="162.99721">All Infiniband</tspan>
                    </text>
                </g>
                <g id="CoreSite" transform="translate(206.000000, 39.000000)">
                    <text id="Y-label" transform="translate(59.500000, 12.986824) rotate(-360.000000) translate(-59.500000, -12.986824) " font-family="Helvetica" font-size="18" font-weight="normal" line-spacing="24" fill="#171717">
                        <tspan x="24.484375" y="18.9868242">CoreSite</tspan>
                    </text>
                    <g id="building--insights-2" transform="translate(4.576923, 31.654702)">
                        <path d="M96.1153846,7.00045434 L54.9230769,7.00045434 C51.1329984,7.0043132 48.0614767,10.136264 48.0576923,14.0009087 L48.0576923,49.0031804 L13.7307692,49.0031804 C9.94069066,49.0070392 6.86916902,52.1389901 6.86538462,56.0036347 L6.86538462,105.006815 L102.980769,105.006815 L102.980769,14.0009087 C102.976418,10.1365036 99.9052282,7.00489076 96.1153846,7.00045434 Z M30.8942308,98.0063607 L30.8942308,73.5047706 L44.625,73.5047706 L44.625,98.0063607 L30.8942308,98.0063607 Z M96.1153846,98.0063607 L51.4903846,98.0063607 L51.4903846,70.0045434 C51.4903846,68.0714213 49.9535159,66.5043162 48.0576923,66.5043162 L27.4615385,66.5043162 C25.5657148,66.5043162 24.0288462,68.0714213 24.0288462,70.0045434 L24.0288462,98.0063607 L13.7307692,98.0063607 L13.7307692,56.0036347 L54.9230769,56.0036347 L54.9230769,14.0009087 L96.1153846,14.0009087 L96.1153846,98.0063607 Z" id="Shape" fill="#000000" fill-rule="nonzero"></path>
                        <rect id="Rectangle" fill="#000000" fill-rule="nonzero" x="61.7884615" y="28.0018174" width="6.86538462" height="7.00045434"></rect>
                        <rect id="Rectangle" fill="#000000" fill-rule="nonzero" x="82.3846154" y="28.0018174" width="6.86538462" height="7.00045434"></rect>
                        <rect id="Rectangle" fill="#000000" fill-rule="nonzero" x="61.7884615" y="49.0031804" width="6.86538462" height="7.00045434"></rect>
                        <rect id="Rectangle" fill="#000000" fill-rule="nonzero" x="82.3846154" y="49.0031804" width="6.86538462" height="7.00045434"></rect>
                        <rect id="Rectangle" fill="#000000" fill-rule="nonzero" x="61.7884615" y="70.0031433" width="6.86538462" height="7.00045434"></rect>
                        <rect id="Rectangle" fill="#000000" fill-rule="nonzero" x="82.3846154" y="70.0031433" width="6.86538462" height="7.00045434"></rect>
                        <path d="M18.8798077,42.002726 C12.244425,42.002726 6.86538462,36.5178582 6.86538462,29.7519309 C6.86538462,22.9860036 12.244425,17.5011358 18.8798077,17.5011358 L21.0321058,17.5011358 C22.6040322,11.3239018 28.0682618,7.00807454 34.3269231,7.00045434 L41.1923077,7.00045434 L41.1923077,14.0009087 L34.3269231,14.0009087 C30.5370795,14.0053451 27.4658893,17.136958 27.4615385,21.001363 L27.4615385,24.5015902 L18.8798077,24.5015902 C16.0360723,24.5015902 13.7307692,26.8522478 13.7307692,29.7519309 C13.7307692,32.6516141 16.0360723,35.0022717 18.8798077,35.0022717 L41.1923077,35.0022717 L41.1923077,42.002726 L18.8798077,42.002726 Z" id="Path" fill="#000000" fill-rule="nonzero"></path>
                        <rect id="_Transparent_Rectangle_" x="0" y="0" width="109.846154" height="112.007269"></rect>
                    </g>
                    <text id="Y-label-Copy-2" transform="translate(59.500000, 157.662881) rotate(-360.000000) translate(-59.500000, -157.662881) " font-family="Helvetica" font-size="12" font-weight="normal" line-spacing="16" fill="#171717">
                        <tspan x="2.28846154" y="160.662881">Rome - Infiniband</tspan>
                    </text>
                    <text id="Y-label-Copy-2" transform="translate(59.500000, 180.997728) rotate(-360.000000) translate(-59.500000, -180.997728) " font-family="Helvetica" font-size="12" font-weight="normal" line-spacing="16" fill="#171717">
                        <tspan x="0" y="183.997728">GPUs - [Infiniband]</tspan>
                    </text>
                    <g id="code-snippet-/-inline-/-02-hover" transform="translate(28.605769, 197.332122)">
                        <rect id="background" fill="#E5E5E5" fill-rule="evenodd" x="0" y="0" width="61.7884615" height="16" rx="2"></rect>
                        <g id="utilities-/-spacer-/-component-/-horizontal-/-spacing-03-(8px)-/-off" transform="translate(53.788462, 0.000000)">
                            <rect id="spacer" x="0" y="0" width="8" height="18.6678782"></rect>
                        </g>
                        <text id="Inline-code" font-family="Helvetica" font-size="12" font-weight="normal" line-spacing="16" letter-spacing="0.319999993" fill="#161616">
                            <tspan x="8" y="11">-C ib</tspan>
                        </text>
                    </g>
                </g>
                <g id="FI" transform="translate(1.000000, 39.000000)">
                    <text transform="translate(69.000000, 12.978830) rotate(-360.000000) translate(-69.000000, -12.978830) " font-family="Helvetica" font-size="18" font-weight="normal" line-spacing="24" fill="#171717">
                        <tspan x="61.0019531" y="18.9788297">FI</tspan>
                    </text>
                    <g id="code-snippet-/-inline-/-02-hover" transform="translate(33.350000, 226.345032)">
                        <rect id="background" fill="#E5E5E5" fill-rule="evenodd" x="0" y="0" width="71.3" height="16" rx="2"></rect>
                        <g id="utilities-/-spacer-/-component-/-horizontal-/-spacing-03-(8px)-/-off" transform="translate(63.300000, 0.000000)">
                            <rect id="spacer" x="0" y="0" width="8" height="18.6549685"></rect>
                        </g>
                        <text id="Inline-code" font-family="Helvetica" font-size="12" font-weight="normal" line-spacing="16" letter-spacing="0.319999993" fill="#161616">
                            <tspan x="8" y="11">-C opa</tspan>
                        </text>
                    </g>
                    <g id="building--insights-1" transform="translate(13.800000, 31.633798)">
                        <path d="M96.6,6.99561318 L55.2,6.99561318 C51.3908118,6.99946937 48.3038035,10.1292543 48.3,13.9912264 L48.3,48.9692922 L13.8,48.9692922 C9.99081179,48.9731484 6.90380349,52.1029334 6.9,55.9649054 L6.9,104.934198 L103.5,104.934198 L103.5,13.9912264 C103.495627,10.1294937 100.408952,7.00004653 96.6,6.99561318 Z M31.05,97.9385845 L31.05,73.4539383 L44.85,73.4539383 L44.85,97.9385845 L31.05,97.9385845 Z M96.6,97.9385845 L51.75,97.9385845 L51.75,69.9561318 C51.75,68.0243465 50.2053824,66.4583252 48.3,66.4583252 L27.6,66.4583252 C25.6946176,66.4583252 24.15,68.0243465 24.15,69.9561318 L24.15,97.9385845 L13.8,97.9385845 L13.8,55.9649054 L55.2,55.9649054 L55.2,13.9912264 L96.6,13.9912264 L96.6,97.9385845 Z" id="Shape" fill="#000000" fill-rule="nonzero"></path>
                        <rect id="Rectangle" fill="#000000" fill-rule="nonzero" x="62.1" y="27.9824527" width="6.9" height="6.99561318"></rect>
                        <rect id="Rectangle" fill="#000000" fill-rule="nonzero" x="82.8" y="27.9824527" width="6.9" height="6.99561318"></rect>
                        <rect id="Rectangle" fill="#000000" fill-rule="nonzero" x="62.1" y="48.9692922" width="6.9" height="6.99561318"></rect>
                        <rect id="Rectangle" fill="#000000" fill-rule="nonzero" x="82.8" y="48.9692922" width="6.9" height="6.99561318"></rect>
                        <rect id="Rectangle" fill="#000000" fill-rule="nonzero" x="62.1" y="69.9547326" width="6.9" height="6.99561318"></rect>
                        <rect id="Rectangle" fill="#000000" fill-rule="nonzero" x="82.8" y="69.9547326" width="6.9" height="6.99561318"></rect>
                        <path d="M31.05,41.9736791 L24.15,41.9736791 C24.1612164,32.3194672 31.8777379,24.496018 41.4,24.4846461 L41.4,31.4802593 C35.6864539,31.4866208 31.0562746,36.1809604 31.05,41.9736791 L31.05,41.9736791 Z" id="Path" fill="#000000" fill-rule="nonzero"></path>
                        <path d="M13.8,41.9736791 L6.9,41.9736791 C6.92167407,22.6649361 22.3551611,7.01758759 41.4,6.99561318 L41.4,13.9912264 C26.1641918,14.0089597 13.817491,26.5267485 13.8,41.9736791 L13.8,41.9736791 Z" id="Path" fill="#000000" fill-rule="nonzero"></path>
                        <rect id="_Transparent_Rectangle_" x="0" y="0" width="110.4" height="111.929811"></rect>
                    </g>
                    <text id="Y-label-Copy-2" transform="translate(69.000000, 155.222964) rotate(-360.000000) translate(-69.000000, -155.222964) " font-family="Helvetica" font-size="12" font-weight="normal" line-spacing="16" fill="#171717">
                        <tspan x="0" y="158.222964">Broadwell - Omnipath</tspan>
                    </text>
                    <text id="Y-label-Copy-2" transform="translate(69.000000, 178.541675) rotate(-360.000000) translate(-69.000000, -178.541675) " font-family="Helvetica" font-size="12" font-weight="normal" line-spacing="16" fill="#171717">
                        <tspan x="6.9" y="181.541675">Skylake - Omnipath</tspan>
                    </text>
                    <text id="Y-label-Copy-2" transform="translate(69.000000, 205.358192) rotate(-360.000000) translate(-69.000000, -205.358192) " font-family="Helvetica" font-size="12" font-weight="normal" line-spacing="16" fill="#171717">
                        <tspan x="34.5" y="208.358192">GPUs - NA</tspan>
                    </text>
                </g>
                <g id="Group" transform="translate(124.000000, 114.000000)">
                    <text id="Y-label-Copy-2" transform="translate(45.714286, 8.230769) rotate(-360.000000) translate(-45.714286, -8.230769) " font-family="Helvetica" font-size="12" font-weight="normal" line-spacing="16" fill="#171717">
                        <tspan x="20.5714286" y="11.2307692">DWDM</tspan>
                    </text>
                    <rect id="Rectangle" stroke="#6929C4" fill="#6929C4" transform="translate(44.000000, 26.115385) scale(1, -1) translate(-44.000000, -26.115385) " x="0.5" y="23.7307692" width="87" height="4.76923077"></rect>
                </g>
                <text id="widgetTitle" font-family="IBMPlexSans-SemiBold, IBM Plex Sans" font-size="16" font-weight="500" line-spacing="22" fill="#171717">
                    <tspan x="0" y="16">Fiber Types</tspan>
                </text>
            </g>
            <g id="Left-Side" transform="translate(32.000000, 125.000000)" font-family="Helvetica" font-weight="normal">
                <text id="On-a-typical-connect" font-size="14" line-spacing="20" fill="#161616">
                    <tspan x="0" y="64">On a typical connection on Infiniband, about 5000 bits </tspan>
                    <tspan x="0" y="84">are traveling along the fiber optic cable at the same time </tspan>
                    <tspan x="0" y="104">- so 5000 bits are sent before the first one arrives at the </tspan>
                    <tspan x="0" y="124">speed of light.</tspan>
                    <tspan x="0" y="144"></tspan>
                    <tspan x="0" y="164">One Infiniband node can send a small message to </tspan>
                    <tspan x="0" y="184">another in about the time light travels from 5th to 6th </tspan>
                    <tspan x="0" y="204">Avenue. </tspan>
                </text>
                <text id="Very-Low-Latency" font-size="24" line-spacing="28" fill="#595859">
                    <tspan x="0" y="23">Very Low Latency</tspan>
                </text>
            </g>
            <text id="Network" font-family="IBMPlexSans-SemiBold, IBM Plex Sans" font-size="32" font-weight="500" fill="#161616">
                <tspan x="436" y="65">Network</tspan>
            </text>
            <g id="Organization-/-Data-/-network--3-/-32" transform="translate(231.000000, 127.000000)" fill="#000000">
                <path d="M22.5,22.5 L16.5,22.5 L16.5,16.5 L22.5,16.5 L22.5,22.5 Z M18,21 L21,21 L21,18 L18,18 L18,21 Z M15,20.25 L6,20.25 C3.51471863,20.25 1.5,18.2352814 1.5,15.75 C1.5,13.2647186 3.51471863,11.25 6,11.25 L7.5,11.25 L7.5,12.75 L6,12.75 C4.34314575,12.75 3,14.0931458 3,15.75 C3,17.4068542 4.34314575,18.75 6,18.75 L15,18.75 L15,20.25 Z M15,15 L9,15 L9,9 L15,9 L15,15 Z M10.5,13.5 L13.5,13.5 L13.5,10.5 L10.5,10.5 L10.5,13.5 Z M18,12.75 L16.5,12.75 L16.5,11.25 L18,11.25 C19.6568542,11.25 21,9.90685425 21,8.25 C21,6.59314575 19.6568542,5.25 18,5.25 L9,5.25 L9,3.75 L18,3.75 C20.4852813,3.75 22.5,5.76471865 22.5,8.25 C22.5,10.7352813 20.4852813,12.75 18,12.75 Z M7.5,7.5 L1.5,7.5 L1.5,1.5 L7.5,1.5 L7.5,7.5 Z M3,6 L6,6 L6,3 L3,3 L3,6 Z" id="Fill"></path>
            </g>
        </g>
    </g>
</svg>